<svg width="1318" height="132" viewBox="0 0 1318 132" fill="none" xmlns="http://www.w3.org/2000/svg">
<path fill-rule="evenodd" clip-rule="evenodd" d="M159.145 66.0453L158.546 56.0488L156.813 46.9175L153.813 38.3221L149.68 30.5896L144.482 23.6588L138.219 17.5956L132.087 13.1968V66.0453L131.688 73.042L130.42 79.4391L128.356 85.1051V85.1709L121.691 94.7677L112.428 101.967L100.699 106.631L94.1018 108.096L87.037 108.963L79.5726 109.297L72.0423 108.963L64.9774 108.096L52.115 104.564L41.3849 98.701L33.2552 90.3032L28.1253 79.4391L26.4583 66.0453L26.8581 59.0463L30.2576 46.9175L36.9885 37.2548L46.3832 30.0583L58.3122 25.2599L64.9116 23.7929H64.8434L71.9741 22.8595H71.9082L79.5726 22.5938L87.1029 22.8595L94.1677 23.7929L106.896 27.3923L117.426 33.3897L125.356 41.7875L130.42 52.6492L132.087 66.0453V13.1968L130.888 12.3974L122.556 7.99875L115.16 5.1328L107.096 2.86646L98.4982 1.33357L89.3034 0.334412L79.5726 0.0687256L69.7759 0.334412L60.6469 1.33357L52.0491 2.86646L44.051 5.1328L36.6547 7.99875L28.2568 12.3974L20.9264 17.5956L14.6633 23.6588L9.39704 30.5896L5.26626 38.3221L2.33222 46.7858V46.8517L0.533657 56.0488L0 66.0453L0.533657 75.9078L2.33222 85.1051L5.26626 93.5687L9.39704 101.233L14.6633 108.164L20.9264 114.227L28.2568 119.493L36.6547 123.824L44.051 126.69L52.0491 128.956L60.6469 130.489L69.7759 131.488L79.5726 131.754L89.3692 131.488L98.5664 130.489L107.162 128.956L115.16 126.69L122.556 123.824L130.888 119.493L138.219 114.227L143.351 109.297L144.482 108.164L149.68 101.233L153.813 93.5687L156.745 85.1709L158.546 75.9737L159.145 66.0453Z" fill="#F0F0F0"/>
<path fill-rule="evenodd" clip-rule="evenodd" d="M204.461 37.0547V36.9889L182.604 34.3228L204.461 37.0547Z" fill="#F0F0F0"/>
<path fill-rule="evenodd" clip-rule="evenodd" d="M236.783 0.167976H216.524V0.0998154L210.727 0.367794L200.53 2.10049L192.198 5.69991L185.869 11.2296L181.602 18.7598L179.47 28.4249L179.204 34.0226H179.27L204.461 37.0884L205.66 28.7564L210.858 22.6931L214.925 21.2942L217.258 20.8946H217.189L219.724 20.7605H236.783V0.167976Z" fill="#F0F0F0"/>
<path fill-rule="evenodd" clip-rule="evenodd" d="M319.421 48.5839L287.499 59.1799V37.0544L262.242 33.9229V67.5777L204.461 86.7714V37.0544L179.138 33.9229L179.204 95.1669V114.361V131.488H204.461V105.963L262.242 86.8373V131.488H287.499V78.5076L319.421 67.9092V48.5839Z" fill="#F0F0F0"/>
<path fill-rule="evenodd" clip-rule="evenodd" d="M319.621 0.168098H299.628V0.0999374H299.294L293.562 0.367916H293.696L288.433 1.0333L283.566 2.10061L279.17 3.6335L271.771 8.16391L266.507 14.6951L263.307 23.2927L262.242 33.5549V34.0227H262.374L286.831 36.9545L265.708 34.4224L287.499 37.1543V37.0203L287.633 34.4224L289.631 26.8921L295.897 21.8938L302.894 20.7607H319.621V0.168098Z" fill="#F0F0F0"/>
<path fill-rule="evenodd" clip-rule="evenodd" d="M494.758 67.3784H433.114V84.0377H467.968L467.303 85.6387L462.305 92.5014L455.374 98.567L446.642 103.431L436.246 107.031L424.251 108.829L417.654 109.029L409.19 108.698L401.526 107.764L394.661 106.163L383.197 101.165L374.802 93.9026L369.336 84.5055L366.604 73.2418L366.204 66.8447L366.604 60.3136L369.736 48.5844L375.867 38.6537L384.93 30.9917L396.859 25.5914L403.79 23.8587L411.323 22.7937L419.518 22.4599L425.918 22.6597L437.179 24.3265L446.576 27.5263L454.107 32.0567L459.904 37.7226L464.037 44.5194L465.436 48.3187H490.427L489.36 41.188L484.362 28.3914L480.097 22.4599L475.567 17.6614L469.969 13.1968L463.504 9.26595L456.239 6.00037L448.175 3.4001L439.377 1.53345L429.849 0.402573L419.586 0.0687256L410.855 0.334412L402.525 1.13374L394.527 2.53497L386.997 4.39933L379.866 6.8655L373.335 9.8654L361.674 17.4616L352.343 26.9926L345.412 38.4538L341.079 51.8499L340.014 59.2462L339.614 66.8447L339.68 67.3784L340.014 74.5748L341.013 81.7736L345.078 94.8336L351.743 105.897L360.741 115.095L371.87 122.291L385.064 127.423L392.329 129.156H392.395L399.993 130.421L408.123 131.223L416.453 131.488L425.716 131.288L434.713 130.555L443.445 129.156L451.574 127.024L458.839 123.958L464.971 119.825L471.234 113.827L475.167 109.029L476.7 107.096L477.231 106.231L477.299 106.163L477.231 131.754H494.758V81.7736V67.3784Z" fill="#F0F0F0"/>
<path fill-rule="evenodd" clip-rule="evenodd" d="M648.506 38.1881L648.107 31.8568L646.973 26.1251L645.572 22.3282L645.107 20.9951L639.175 12.5315L630.78 6.26605L622.647 3.06627V39.9208L622.316 44.1197L619.45 51.2504L613.718 56.4485L605.32 59.1145H605.186L600.056 59.4461H540.677V22.3282H600.256L605.389 22.5938L613.718 24.8602L619.45 29.259L622.316 35.7901L622.647 39.9208V3.06627L619.981 2.20114L613.852 0.933929L607.321 0.200394L600.256 0.000564575H514.82V131.754H540.743V79.4391H589.592L600.456 79.907L608.386 81.0401L615.916 84.7712L619.316 91.4363L619.981 97.8993V131.754H645.84V96.1008L645.572 91.4363L643.374 83.2383L640.708 79.4391L638.975 77.7064L632.444 74.0411L624.98 72.1086L617.115 71.1095L619.916 70.5757L627.446 68.3775L633.843 65.3776L641.307 59.4461L645.372 53.4486L647.773 46.452L648.306 42.5187L648.506 38.1881Z" fill="#F0F0F0"/>
<path fill-rule="evenodd" clip-rule="evenodd" d="M825.041 65.845L824.441 55.9143V55.8485L822.708 46.7171L819.711 38.1876L815.578 30.4575L810.38 23.5925L804.116 17.5292L797.985 13.1305V65.9766L797.585 73.0415L794.252 85.0387L787.589 94.6332L778.326 101.832L766.662 106.431L752.867 108.763H752.667L745.47 109.097L737.94 108.763L730.875 107.895L718.013 104.43L707.217 98.5664L699.087 90.1686L694.021 79.3727L692.356 65.9766L692.756 58.9801L696.153 46.917L702.884 37.3201L712.281 30.1895L724.278 25.391L737.94 23.0588L745.47 22.7273L753.001 23.0588L760.065 23.9264L772.794 27.4576L783.324 33.3892L791.32 41.787L796.318 52.5829L797.985 65.845V65.9766V13.1305L788.454 7.86422L781.058 4.99834L773.059 2.80016L764.464 1.2014L755.199 0.268036L745.47 6.10352e-05L735.674 0.268036L726.542 1.2014L717.947 2.80016L709.949 4.99834L702.552 7.86422L694.155 12.263L686.824 17.5292L680.559 23.5925L675.295 30.4575L671.162 38.1876L668.23 46.6513V46.7171L666.431 55.8485V55.9143L665.832 65.845L666.431 75.7075L668.23 84.9047L671.162 93.3002L675.295 100.965L680.559 107.895L686.824 113.961L694.155 119.159L702.552 123.558L709.949 126.424L717.947 128.688L726.542 130.221L735.674 131.154L745.47 131.488L755.267 131.154L764.464 130.221L773.059 128.688L781.058 126.424L788.454 123.558L796.786 119.159L804.048 113.961L809.115 109.097L815.578 100.965L819.711 93.3002L822.708 84.9047L824.441 75.7733L825.041 65.9766V65.845Z" fill="#F0F0F0"/>
<path fill-rule="evenodd" clip-rule="evenodd" d="M986.583 0.0682068H960.727V73.0415H960.659L959.194 86.1696L954.73 95.7006L947.731 102.166L938.801 106.163L928.205 108.295L916.076 108.963L909.745 108.829L898.082 107.43L888.019 104.498L879.955 99.2318L874.224 91.3018L871.292 80.0404L870.958 73.0415V0.0682068H845.102V75.8415L845.301 81.9048L847.1 92.8347L850.699 102.232L855.698 110.162L862.095 116.559L869.693 121.757L878.557 125.824L888.353 128.688L899.015 130.489L910.41 131.422L916.142 131.488L921.806 131.422L932.736 130.489L943.132 128.688L952.797 125.824L961.592 121.825L969.325 116.627L975.853 110.162L980.986 102.232L984.585 92.8347L986.384 81.9048L986.583 75.8415V0.0682068Z" fill="#F0F0F0"/>
<path fill-rule="evenodd" clip-rule="evenodd" d="M1151.93 0.0687256H1126.07V94.8336L1057.89 25.7936L1032.5 0.0687256H1006.65V131.754H1032.5V37.3888L1126.07 131.754H1151.93V106.563V0.0687256Z" fill="#F0F0F0"/>
<path fill-rule="evenodd" clip-rule="evenodd" d="M1318 65.2461L1317.14 51.85L1314.4 38.9876L1309.6 28.3258L1305.21 22.1943L1302.34 18.9945L1297.74 14.8638L1292.41 11.1986L1291.74 10.7989V65.2461L1291.61 69.2428L1290.41 76.9753L1288.01 84.7713L1284.15 93.4348L1278.61 99.7003L1271.22 104.365L1261.95 107.696L1250.29 109.429L1243.63 109.629H1198.11V22.1943H1243.63L1256.42 23.0594L1266.88 25.5915L1275.22 29.5247L1281.61 34.5889L1286.28 40.7203L1289.41 47.5171L1291.14 56.183L1291.74 65.2461V10.7989L1279.62 5.19878L1272.15 2.93472L1263.69 1.33368L1254.42 0.402679L1244.23 0.0688477H1172.19V131.822H1244.16L1253.89 131.488L1262.89 130.489L1271.08 128.822L1278.55 126.556L1285.28 123.758L1296.67 116.693L1303.94 109.629L1305.41 107.964L1311.74 97.7677L1315.8 85.9045L1317 78.9737L1317.8 71.9089L1318 65.2461Z" fill="#F0F0F0"/>
</svg>
